<svg width="154" height="400" viewBox="0 0 154 400" fill="none" xmlns="http://www.w3.org/2000/svg">
<mask id="path-1-outside-1_185_2702" maskUnits="userSpaceOnUse" x="-1.00002" y="-1.00001" width="157" height="402" fill="black">
<rect fill="white" x="-1.00002" y="-1.00001" width="157" height="402"/>
<path d="M2.99998 313.2L28.8 313.2L28.8 367.2L62.6 367.2L62.6 316.4L88.4 316.4L88.4 367.2L141 367.2L141 399.4L2.99999 399.4L2.99998 313.2ZM2.79998 215.692L141 163.692L141 198.892L113.2 208.692L113.2 257.892L141 267.692L141 301.292L2.79998 249.292L2.79998 215.692ZM88 250.492L88 216.092L38.4 233.292L88 250.492ZM72.2 0.460923C91.4 0.460923 107.2 6.46093 119.2 16.6609L136.2 1.66093L153.6 21.4609L135.4 37.4609C140.6 48.0609 143.4 60.4609 143.4 73.6609C143.4 114.661 116.8 146.861 72.2 146.861C27.6 146.861 0.79998 114.661 0.799978 73.6609C0.799976 32.6609 27.6 0.460925 72.2 0.460923ZM71.4 33.2609C45.2 33.2609 28.4 50.6609 28.4 73.6609C28.4 96.6609 45 114.061 71.4 114.061C97.8 114.061 114.6 96.6609 114.6 73.6609C114.6 68.0609 113.6 62.8609 111.8 58.4609L102.4 66.6609L84.8 46.8609L94.4 38.4609C88 35.0609 80.2 33.2609 71.4 33.2609Z"/>
</mask>
<path d="M2.99998 313.2L2.99998 312.2L1.99998 312.2L1.99998 313.2L2.99998 313.2ZM28.8 313.2L29.8 313.2L29.8 312.2L28.8 312.2L28.8 313.2ZM28.8 367.2L27.8 367.2L27.8 368.2L28.8 368.2L28.8 367.2ZM62.6 367.2L62.6 368.2L63.6 368.2L63.6 367.2L62.6 367.2ZM62.6 316.4L62.6 315.4L61.6 315.4L61.6 316.4L62.6 316.4ZM88.4 316.4L89.4 316.4L89.4 315.4L88.4 315.4L88.4 316.4ZM88.4 367.2L87.4 367.2L87.4 368.2L88.4 368.2L88.4 367.2ZM141 367.2L142 367.2L142 366.2L141 366.2L141 367.2ZM141 399.4L141 400.4L142 400.4L142 399.4L141 399.4ZM2.99999 399.4L1.99999 399.4L1.99999 400.4L2.99999 400.4L2.99999 399.4ZM2.99998 314.2L28.8 314.2L28.8 312.2L2.99998 312.2L2.99998 314.2ZM27.8 313.2L27.8 367.2L29.8 367.2L29.8 313.2L27.8 313.2ZM28.8 368.2L62.6 368.2L62.6 366.2L28.8 366.2L28.8 368.2ZM63.6 367.2L63.6 316.4L61.6 316.4L61.6 367.2L63.6 367.2ZM62.6 317.4L88.4 317.4L88.4 315.4L62.6 315.4L62.6 317.4ZM87.4 316.4L87.4 367.2L89.4 367.2L89.4 316.4L87.4 316.4ZM88.4 368.2L141 368.2L141 366.2L88.4 366.2L88.4 368.2ZM140 367.2L140 399.4L142 399.4L142 367.2L140 367.2ZM141 398.4L2.99999 398.4L2.99999 400.4L141 400.4L141 398.4ZM3.99999 399.4L3.99998 313.2L1.99998 313.2L1.99999 399.4L3.99999 399.4ZM2.79998 215.692L2.44782 214.756L1.79998 215L1.79998 215.692L2.79998 215.692ZM141 163.692L142 163.692L142 162.247L140.648 162.756L141 163.692ZM141 198.892L141.332 199.835L142 199.6L142 198.892L141 198.892ZM113.2 208.692L112.868 207.749L112.2 207.984L112.2 208.692L113.2 208.692ZM113.2 257.892L112.2 257.892L112.2 258.6L112.868 258.835L113.2 257.892ZM141 267.692L142 267.692L142 266.984L141.332 266.749L141 267.692ZM141 301.292L140.648 302.228L142 302.737L142 301.292L141 301.292ZM2.79998 249.292L1.79998 249.292L1.79998 249.984L2.44782 250.228L2.79998 249.292ZM88 250.492L87.6724 251.437L89 251.897L89 250.492L88 250.492ZM88 216.092L89 216.092L89 214.687L87.6724 215.147L88 216.092ZM38.4 233.292L38.0724 232.347L35.3478 233.292L38.0724 234.237L38.4 233.292ZM3.15214 216.628L141.352 164.628L140.648 162.756L2.44782 214.756L3.15214 216.628ZM140 163.692L140 198.892L142 198.892L142 163.692L140 163.692ZM140.668 197.949L112.868 207.749L113.532 209.635L141.332 199.835L140.668 197.949ZM112.2 208.692L112.2 257.892L114.2 257.892L114.2 208.692L112.2 208.692ZM112.868 258.835L140.668 268.635L141.332 266.749L113.532 256.949L112.868 258.835ZM140 267.692L140 301.292L142 301.292L142 267.692L140 267.692ZM141.352 300.356L3.15215 248.356L2.44782 250.228L140.648 302.228L141.352 300.356ZM3.79998 249.292L3.79998 215.692L1.79998 215.692L1.79998 249.292L3.79998 249.292ZM89 250.492L89 216.092L87 216.092L87 250.492L89 250.492ZM87.6724 215.147L38.0724 232.347L38.7276 234.237L88.3276 217.037L87.6724 215.147ZM38.0724 234.237L87.6724 251.437L88.3276 249.547L38.7276 232.347L38.0724 234.237ZM119.2 16.6609L118.552 17.4229L119.212 17.9838L119.862 17.4108L119.2 16.6609ZM136.2 1.66094L136.951 1.00082L136.29 0.248132L135.538 0.911096L136.2 1.66094ZM153.6 21.4609L154.26 22.212L155.011 21.5518L154.351 20.8008L153.6 21.4609ZM135.4 37.4609L134.74 36.7099L134.165 37.2148L134.502 37.9014L135.4 37.4609ZM111.8 58.4609L112.726 58.0823L112.196 56.7883L111.143 57.7074L111.8 58.4609ZM102.4 66.6609L101.653 67.3253L102.311 68.0658L103.057 67.4145L102.4 66.6609ZM84.8 46.8609L84.1415 46.1084L83.383 46.772L84.0526 47.5253L84.8 46.8609ZM94.4 38.4609L95.0585 39.2135L96.1501 38.2583L94.8691 37.5778L94.4 38.4609ZM72.2 1.46093C91.1807 1.46093 106.746 7.38781 118.552 17.4229L119.848 15.899C107.654 5.53405 91.6193 -0.539067 72.2 -0.539066L72.2 1.46093ZM119.862 17.4108L136.862 2.41076L135.538 0.911096L118.538 15.9111L119.862 17.4108ZM135.449 2.32104L152.849 22.121L154.351 20.8008L136.951 1.00082L135.449 2.32104ZM152.94 20.7099L134.74 36.7099L136.06 38.212L154.26 22.212L152.94 20.7099ZM134.502 37.9014C139.629 48.353 142.4 60.6005 142.4 73.6609L144.4 73.6609C144.4 60.3213 141.571 47.7689 136.298 37.0205L134.502 37.9014ZM142.4 73.6609C142.4 93.9465 135.821 111.992 123.792 124.956C111.772 137.91 94.2454 145.861 72.2 145.861L72.2 147.861C94.7546 147.861 112.828 139.712 125.258 126.316C137.679 112.93 144.4 94.3753 144.4 73.6609L142.4 73.6609ZM72.2 145.861C50.1543 145.861 32.5772 137.91 20.5066 124.954C8.4275 111.989 1.79998 93.9445 1.79998 73.6609L-0.200021 73.6609C-0.20002 94.3773 6.57246 112.932 19.0433 126.318C31.5227 139.712 49.6457 147.861 72.2 147.861L72.2 145.861ZM1.79998 73.6609C1.79998 53.3773 8.42749 35.3324 20.5066 22.3676C32.5772 9.41199 50.1543 1.46093 72.2 1.46093L72.2 -0.539066C49.6457 -0.539066 31.5227 7.60986 19.0433 21.0042C6.57246 34.3895 -0.200022 52.9445 -0.200021 73.6609L1.79998 73.6609ZM71.4 32.2609C58.0737 32.2609 47.0639 36.6899 39.38 44.1169C31.6958 51.5442 27.4 61.9104 27.4 73.6609L29.4 73.6609C29.4 62.4115 33.5042 52.5777 40.77 45.555C48.036 38.5319 58.5263 34.2609 71.4 34.2609L71.4 32.2609ZM27.4 73.6609C27.4 85.408 31.6434 95.7747 39.3038 103.204C46.9642 110.633 57.9753 115.061 71.4 115.061L71.4 113.061C58.4247 113.061 47.9357 108.789 40.6962 101.768C33.4566 94.7471 29.4 84.9138 29.4 73.6609L27.4 73.6609ZM71.4 115.061C84.8243 115.061 95.884 110.633 103.594 103.206C111.304 95.7786 115.6 85.4116 115.6 73.6609L113.6 73.6609C113.6 84.9102 109.496 94.7433 102.206 101.766C94.916 108.789 84.3757 113.061 71.4 113.061L71.4 115.061ZM115.6 73.6609C115.6 67.945 114.58 62.6147 112.726 58.0823L110.874 58.8396C112.62 63.1071 113.6 68.1768 113.6 73.6609L115.6 73.6609ZM111.143 57.7074L101.743 65.9074L103.057 67.4145L112.457 59.2145L111.143 57.7074ZM103.147 65.9966L85.5474 46.1966L84.0526 47.5253L101.653 67.3253L103.147 65.9966ZM85.4585 47.6135L95.0585 39.2135L93.7415 37.7083L84.1415 46.1084L85.4585 47.6135ZM94.8691 37.5778C88.3006 34.0883 80.334 32.2609 71.4 32.2609L71.4 34.2609C80.066 34.2609 87.6994 36.0336 93.9308 39.3441L94.8691 37.5778Z" fill="black" mask="url(#path-1-outside-1_185_2702)"/>
</svg>
