<svg width="81" height="41" viewBox="0 0 81 41" fill="none" xmlns="http://www.w3.org/2000/svg">
<path fill-rule="evenodd" clip-rule="evenodd" d="M16.2065 3.11004C15.0992 0.283634 11.0995 0.28363 9.99214 3.11004L1.156 25.6643C0.298493 27.853 1.91241 30.2187 4.26317 30.2187H6.18898C6.34566 28.8028 6.93457 27.4623 7.88488 26.3847C9.00492 25.1146 10.55 24.2968 12.2301 24.085H13.9682C17.1474 24.4814 19.6604 27.0246 20.0099 30.2187H21.9355C24.2862 30.2187 25.9001 27.853 25.0426 25.6643L16.2065 3.11004ZM7.88488 17.9478C7.88488 20.8287 10.2183 23.1621 13.0991 23.1621C15.98 23.1621 18.3134 20.8287 18.3134 17.9478C18.3134 15.067 15.98 12.7336 13.0991 12.7336C10.2183 12.7336 7.88488 15.067 7.88488 17.9478Z" fill="url(#paint0_linear_50_773)"/>
<path d="M9.24607 18.7162C9.17761 18.3035 9.17774 17.8824 9.24646 17.4697C9.66745 17.4796 10.0464 17.2777 10.1936 16.9225C10.3408 16.5669 10.2158 16.1566 9.91065 15.866C10.154 15.5254 10.4519 15.2273 10.7924 14.9839C11.083 15.289 11.4937 15.414 11.8489 15.2668C12.2045 15.1196 12.4064 14.7407 12.3961 14.3197C12.8089 14.251 13.2302 14.251 13.643 14.3197C13.6331 14.741 13.835 15.1196 14.1902 15.2668C14.5458 15.414 14.9561 15.289 15.2467 14.9839C15.5873 15.2272 15.8854 15.5251 16.1289 15.8656C15.8237 16.1562 15.6987 16.5669 15.8459 16.9225C15.9931 17.2781 16.3721 17.48 16.7931 17.4693C16.8617 17.8822 16.8617 18.3037 16.7931 18.7166C16.3717 18.7063 15.9931 18.9082 15.8459 19.2634C15.6987 19.619 15.8237 20.0297 16.1289 20.3203C15.8855 20.6608 15.5876 20.9587 15.2471 21.2021C14.9565 20.8969 14.5458 20.7719 14.1902 20.9191C13.8346 21.0663 13.6327 21.4453 13.6434 21.8666C13.2305 21.9352 12.809 21.9351 12.3961 21.8663C12.4064 21.4453 12.2041 21.0663 11.8493 20.9191C11.4937 20.7719 11.083 20.8969 10.7924 21.2021C10.452 20.9587 10.154 20.6608 9.91065 20.3203C10.2158 20.0297 10.3408 19.619 10.1936 19.2638C10.0464 18.9082 9.66745 18.7059 9.24607 18.7162ZM13.0198 19.2401C13.324 19.2401 13.6158 19.1192 13.8309 18.9041C14.046 18.689 14.1669 18.3972 14.1669 18.093C14.1669 17.7887 14.046 17.4969 13.8309 17.2818C13.6158 17.0667 13.324 16.9458 13.0198 16.9458C12.7155 16.9458 12.4237 17.0667 12.2086 17.2818C11.9935 17.4969 11.8726 17.7887 11.8726 18.093C11.8726 18.3972 11.9935 18.689 12.2086 18.9041C12.4237 19.1192 12.7155 19.2401 13.0198 19.2401Z" fill="#1D1D1D"/>
<circle cx="13.0992" cy="26.8816" r="1.66856" fill="#1D1D1D"/>
<path d="M13.0991 27.7158V30.2187" stroke="#1D1D1D" stroke-width="1.25142"/>
<path d="M33.4223 25.9388C33.4223 27.4962 32.4824 28.2748 30.6025 28.2748C28.7226 28.2748 27.7826 27.4962 27.7826 25.9388V24.5206H28.9506V26.0056C28.9506 26.406 29.0896 26.7175 29.3677 26.94C29.6458 27.1624 30.0574 27.2737 30.6025 27.2737C31.1475 27.2737 31.5591 27.1624 31.8372 26.94C32.1153 26.7175 32.2543 26.4172 32.2543 26.039C32.2543 25.6496 32.2098 25.3437 32.1208 25.1212C32.043 24.8877 31.8761 24.6429 31.6203 24.3871L28.6836 21.5172C28.3388 21.1723 28.0996 20.8386 27.9661 20.516C27.8438 20.1823 27.7826 19.7652 27.7826 19.2646C27.7826 18.5193 28.0106 17.9465 28.4667 17.546C28.9339 17.1344 29.6347 16.9286 30.5691 16.9286C32.36 16.9286 33.2555 17.7073 33.2555 19.2646V20.6829H32.0875V19.1979C32.0875 18.7974 31.954 18.486 31.687 18.2635C31.4312 18.041 31.0418 17.9298 30.519 17.9298C29.9962 17.9298 29.6013 18.041 29.3344 18.2635C29.0785 18.486 28.9506 18.7919 28.9506 19.1812C28.9506 19.5705 28.9895 19.8764 29.0674 20.0989C29.1453 20.3214 29.3177 20.555 29.5846 20.7997L32.5714 23.6696C32.8939 24.0256 33.1164 24.3704 33.2388 24.7041C33.3611 25.0267 33.4223 25.4383 33.4223 25.9388ZM37.5945 28.0245H36.4265V17.1789H37.5945V28.0245ZM43.143 23.5194V22.5183H46.1797V25.9388C46.1797 26.6841 45.9517 27.2626 45.4956 27.6741C45.0395 28.0746 44.3554 28.2748 43.4433 28.2748C42.5312 28.2748 41.8415 28.0746 41.3743 27.6741C40.9071 27.2626 40.6735 26.6841 40.6735 25.9388V19.2646C40.6735 18.5193 40.9015 17.9465 41.3576 17.546C41.8137 17.1344 42.4978 16.9286 43.4099 16.9286C44.3221 16.9286 45.0117 17.1344 45.4789 17.546C45.9461 17.9465 46.1797 18.5193 46.1797 19.2646V20.1823H45.0117V19.2646C45.0117 18.3747 44.4834 17.9298 43.4266 17.9298C42.3699 17.9298 41.8415 18.3747 41.8415 19.2646V25.9388C41.8415 26.8287 42.3699 27.2737 43.4266 27.2737C44.4834 27.2737 45.0117 26.8287 45.0117 25.9388V23.5194H43.143ZM50.4345 28.0245H49.2666V17.1789H49.7671L50.1843 18.2635C50.7182 17.3736 51.4579 16.9286 52.4034 16.9286C54.0386 16.9286 54.8562 17.7073 54.8562 19.2646V28.0245H53.6882V19.2646C53.6882 18.8419 53.5937 18.5138 53.4046 18.2802C53.2266 18.0466 52.8929 17.9298 52.4034 17.9298C51.914 17.9298 51.4635 18.1189 51.0519 18.4971C50.6403 18.8753 50.4345 19.2424 50.4345 19.5983V28.0245Z" fill="url(#paint1_linear_50_773)"/>
<path d="M79.6287 10.4298V19.6903L63.3853 19.6903L63.3853 26.6982L78.5024 26.6982V23.1942H79.6287V27.8245L59.2056 27.8245L59.2056 18.564L75.449 18.564V11.556L60.3318 11.556V15.06H59.2056V10.4298L79.6287 10.4298Z" fill="url(#paint2_linear_50_773)"/>
<path d="M64.3281 16.6758L74.3395 16.6758" stroke="#1D1D1D" stroke-width="0.834278"/>
<path d="M64.3281 24.1842L74.3395 24.1842" stroke="#1D1D1D" stroke-width="0.834278"/>
<circle cx="62.6595" cy="16.6757" r="0.834278" fill="#1D1D1D"/>
<circle cx="76.0076" cy="24.1843" r="0.834278" fill="#1D1D1D"/>
<defs>
<linearGradient id="paint0_linear_50_773" x1="0.922852" y1="20.1786" x2="79.7621" y2="21.0129" gradientUnits="userSpaceOnUse">
<stop stop-color="#25C5DC"/>
<stop offset="1" stop-color="#514C9E"/>
</linearGradient>
<linearGradient id="paint1_linear_50_773" x1="79.7018" y1="13.3678" x2="0.951753" y2="13.3678" gradientUnits="userSpaceOnUse">
<stop stop-color="#514C9E"/>
<stop offset="1" stop-color="#25C5DC"/>
</linearGradient>
<linearGradient id="paint2_linear_50_773" x1="1.79174" y1="18.5578" x2="79.5848" y2="18.5578" gradientUnits="userSpaceOnUse">
<stop stop-color="#25C5DC"/>
<stop offset="1" stop-color="#514C9E"/>
</linearGradient>
</defs>
</svg>
